<svg version="1.1" id="Layer_1" xmlns="http://www.w3.org/2000/svg" xmlns:xlink="http://www.w3.org/1999/xlink" x="0px" y="0px"
	 width="100%" viewBox="0 0 1024 1024" enable-background="new 0 0 1024 1024" xml:space="preserve">
<path fill="#000000" opacity="1.000000" stroke="none" 
	d="
M614.273193,634.070435 
	C616.467102,632.489746 618.256348,632.829651 620.170227,633.915161 
	C644.064270,647.467041 668.463806,660.100830 692.359619,673.666016 
	C698.560547,677.186157 705.141663,680.301025 711.450806,683.837891 
	C716.533569,686.687317 725.974792,681.224243 726.749451,675.538696 
	C726.996338,673.726868 727.332458,671.923218 727.716431,670.134827 
	C729.193054,663.258240 731.188477,661.681641 738.364441,661.661011 
	C745.028015,661.641846 751.691895,661.584778 758.355103,661.630676 
	C764.932739,661.676025 766.888977,663.328491 768.083313,669.824890 
	C768.382324,671.451294 768.247803,673.153076 768.473755,674.798096 
	C769.598328,682.986023 779.052795,687.155457 785.928711,682.525085 
	C786.066833,682.432068 786.200867,682.333069 786.338379,682.238953 
	C797.092712,674.879272 797.619385,674.840881 806.642273,684.256531 
	C811.360901,689.180603 815.841919,694.338684 819.856079,699.888977 
	C821.793579,702.567810 822.091980,704.903809 819.725281,707.462158 
	C818.490845,708.796509 817.563293,710.413147 816.482727,711.891724 
	C811.006592,719.385437 814.168823,726.656738 823.393921,727.775513 
	C837.369934,729.470337 837.983948,730.223572 838.149170,744.067505 
	C838.220825,750.072449 837.841370,756.034912 837.400940,762.013794 
	C837.173523,765.100769 835.886536,766.953491 833.008911,767.922058 
	C829.040649,769.257874 824.913574,769.782471 820.826416,770.550049 
	C813.929504,771.845520 810.801636,779.641357 814.808289,785.337158 
	C815.382690,786.153687 816.025940,786.921387 816.624695,787.721130 
	C823.103027,796.374573 824.496582,794.112488 816.136353,804.082642 
	C811.339600,809.803101 806.466125,815.514404 800.867004,820.546448 
	C797.759399,823.339294 794.838623,823.692932 791.507263,821.197327 
	C790.309753,820.300293 788.818054,819.727600 787.792664,818.681519 
	C783.891357,814.701172 780.058411,814.450684 774.893127,816.921936 
	C770.500854,819.023438 768.587158,821.495117 768.223145,826.225220 
	C767.506714,835.533813 764.437378,838.191711 755.320312,838.267273 
	C748.990173,838.319824 742.656860,838.417114 736.329773,838.278625 
	C730.794067,838.157532 728.537109,835.981567 727.735474,830.526611 
	C727.663025,830.033813 727.684875,829.527893 727.629272,829.031799 
	C726.632996,820.131653 723.077637,816.277527 714.399719,814.559448 
	C713.125000,814.307190 712.092712,814.698059 711.093628,815.299622 
	C709.525330,816.244019 707.999756,817.260315 706.466980,818.262756 
	C697.202637,824.321411 697.083557,824.436951 689.566833,816.522888 
	C684.642395,811.338379 680.121399,805.770325 675.431152,800.364014 
	C672.954102,797.508789 673.089417,794.778259 675.577759,791.900452 
	C677.312256,789.894409 678.770996,787.637085 680.241760,785.418335 
	C684.545044,778.926575 681.929810,772.657349 674.284302,771.035645 
	C671.519836,770.449280 668.751892,769.878967 665.988098,769.289673 
	C662.997803,768.652039 660.620422,767.105896 659.972961,764.008545 
	C659.169922,760.166687 657.009460,760.613220 654.465027,761.909424 
	C646.452454,765.991150 638.385864,769.975220 630.479309,774.254150 
	C619.790955,780.038696 609.242676,786.081604 598.605225,791.960876 
	C597.037964,792.827148 595.564880,794.059387 593.604309,793.965576 
	C592.456360,791.804321 591.935181,697.546997 593.083191,694.199829 
	C595.638489,693.485962 597.389038,695.329712 599.325989,696.413757 
	C619.084473,707.472534 638.833313,718.549072 658.536743,729.705444 
	C660.409485,730.765747 661.945496,731.113953 664.108582,730.443481 
	C667.419312,729.417236 670.896118,728.842468 674.342102,728.358032 
	C679.060913,727.694641 680.365479,724.100403 681.515442,720.392334 
	C682.559692,717.025330 679.841797,715.273315 678.061218,713.172546 
	C677.404297,712.397583 676.382874,711.542603 675.481812,712.011719 
	C671.931824,713.859436 669.427490,711.465698 666.740295,710.036804 
	C643.362122,697.606079 620.046753,685.056335 596.607361,672.742676 
	C593.520630,671.121094 592.128662,669.276917 592.278870,665.862549 
	C592.402771,663.045410 592.420471,660.155945 591.941833,657.392639 
	C590.495911,649.045715 593.789307,643.894836 601.635559,640.870422 
	C605.947449,639.208191 609.856812,636.501709 614.273193,634.070435 
M780.475098,770.953552 
	C783.591492,766.541809 785.954224,761.725830 786.598816,756.367493 
	C789.948303,728.522095 770.543640,708.634888 742.765320,711.290344 
	C723.101196,713.170105 707.922180,729.533508 708.456665,749.403320 
	C709.024048,770.500671 722.796692,785.768250 742.712891,788.653687 
	C758.641357,790.961304 770.873779,784.379700 780.475098,770.953552 
z"/>
<path fill="#000000" opacity="1.000000" stroke="none" 
	d="
M613.075989,352.000214 
	C613.097290,383.649719 613.028625,414.799927 613.241028,445.948181 
	C613.275818,451.049500 611.945618,454.295929 607.060852,456.514191 
	C599.949158,459.743866 593.102539,463.578674 586.254395,467.357361 
	C583.475891,468.890503 581.266174,468.813599 578.419495,467.260559 
	C560.150330,457.293457 541.727844,447.607361 523.447754,437.660004 
	C520.289734,435.941498 517.945862,436.104248 514.779297,437.861572 
	C496.584869,447.958740 478.219727,457.747894 459.936615,467.685944 
	C457.915283,468.784698 456.161957,469.295349 453.898224,468.034180 
	C446.482147,463.902527 438.996735,459.887726 431.440033,456.019409 
	C428.022247,454.269836 426.782990,451.712830 426.787445,447.988678 
	C426.834015,409.176727 426.839142,370.364563 426.710327,331.552948 
	C426.699127,328.177155 428.613373,326.867920 430.978790,325.539795 
	C448.109741,315.921021 465.221893,306.268463 482.379944,296.698273 
	C492.556641,291.021973 502.931183,285.688293 512.964417,279.772614 
	C517.309082,277.210999 520.881287,277.602844 525.023865,279.847015 
	C548.445923,292.535828 571.943726,305.084930 595.396240,317.717712 
	C599.792603,320.085815 604.065430,322.683228 608.461060,325.052826 
	C611.890076,326.901276 613.447510,329.451569 613.222839,333.514618 
	C612.892151,339.494171 613.100769,345.503571 613.075989,352.000214 
M481.038330,325.599670 
	C475.224274,328.836670 469.394592,332.046112 463.604736,335.325867 
	C461.621948,336.449097 458.810059,337.215576 458.714325,339.833557 
	C458.613251,342.597107 461.599731,343.234802 463.525360,344.326019 
	C480.898407,354.171173 498.372162,363.839752 515.687561,373.784393 
	C518.610413,375.463043 520.796265,375.277771 523.448486,373.643341 
	C537.056030,365.258118 551.231262,357.876526 565.206726,350.140747 
	C570.940552,346.966888 576.562561,343.591095 582.600281,340.095947 
	C581.073486,338.904388 580.242981,338.055450 579.246643,337.508453 
	C560.282898,327.096893 541.291138,316.736359 522.331543,306.317291 
	C520.048340,305.062592 518.004272,305.126831 515.749512,306.385651 
	C504.416260,312.712891 493.042694,318.967896 481.038330,325.599670 
z"/>
<path fill="#000000" opacity="1.000000" stroke="none" 
	d="
M418.121246,607.530151 
	C399.653046,616.443726 382.242950,626.607178 364.855255,636.772888 
	C358.982452,640.206421 354.611359,640.900208 348.243958,637.133240 
	C329.187714,625.859497 309.584961,615.503296 290.091553,604.981567 
	C287.270813,603.459106 286.521271,601.719727 286.533234,598.703735 
	C286.660126,566.710815 286.727234,534.717041 286.583069,502.724548 
	C286.562836,498.229980 287.714966,495.549072 291.892731,493.266693 
	C313.815796,481.289795 335.535187,468.940338 357.346161,456.757538 
	C359.180206,455.733124 360.966064,454.322021 364.077789,454.914398 
	C364.077789,462.952332 364.259644,471.026917 363.971283,479.084686 
	C363.880188,481.630981 361.021423,482.506714 359.026031,483.620880 
	C345.210083,491.335052 331.360565,498.989044 317.531036,506.678894 
	C316.116455,507.465454 314.347168,507.846191 313.736755,509.782501 
	C314.264801,511.752686 316.131989,512.398254 317.653137,513.269287 
	C329.505737,520.056335 341.417633,526.739868 353.262329,533.540527 
	C355.067780,534.577148 356.519867,534.620178 358.342194,533.582886 
	C375.856049,523.613953 393.413086,513.721069 410.948608,503.790161 
	C412.231262,503.063843 413.668182,502.465485 414.268951,500.823761 
	C414.107178,498.602234 412.163727,498.118073 410.609039,497.267487 
	C401.988037,492.550781 393.390778,487.789246 384.719055,483.167542 
	C381.928467,481.680206 380.620789,479.766205 380.634399,476.465515 
	C380.799347,436.474487 380.838318,396.482971 380.964630,356.491730 
	C380.972504,354.007996 381.319427,351.507141 381.710449,349.046326 
	C382.784668,342.286102 387.213196,338.652802 394.185699,338.670410 
	C400.811432,338.687134 404.172546,341.832062 405.458130,348.858978 
	C406.033325,352.003235 406.147858,355.136169 406.144623,358.301666 
	C406.109619,392.294189 406.185120,426.287476 405.936218,460.278412 
	C405.899384,465.305542 407.478424,468.176819 411.902100,470.501526 
	C422.365448,476.000122 432.551727,482.023590 442.910675,487.724701 
	C445.961456,489.403717 447.426697,491.453308 447.413910,495.200378 
	C447.276459,535.524902 447.326508,575.850037 447.311127,616.175049 
	C447.310547,617.654724 447.530182,619.190735 446.285706,621.109680 
	C436.616669,617.575195 428.176666,611.176453 418.121246,607.530151 
z"/>
<path fill="#000000" opacity="1.000000" stroke="none" 
	d="
M220.905197,794.968506 
	C223.263550,790.590698 225.578888,786.559204 228.025970,782.609375 
	C229.264984,780.609497 228.993591,778.960083 228.414734,776.635376 
	C225.838455,766.288818 220.123322,760.388000 208.980789,759.943054 
	C204.609802,759.768494 202.504410,756.560242 202.747711,751.889954 
	C202.998764,747.070923 202.869766,742.227600 202.785706,737.397034 
	C202.711685,733.142883 204.306015,729.676880 208.808395,729.892578 
	C220.598450,730.457336 225.157028,723.023132 228.517532,713.592712 
	C229.331497,711.308472 229.437744,709.662720 228.132751,707.589294 
	C225.924515,704.080688 223.718094,700.566284 222.366776,696.552307 
	C221.393677,693.661804 221.763489,691.244995 223.779663,689.178223 
	C227.497894,685.366699 231.350830,681.685852 235.171448,677.975098 
	C237.529068,675.685181 239.995010,675.275269 242.718185,677.487549 
	C243.871719,678.424683 245.637848,678.794922 246.469727,679.911438 
	C253.371765,689.175415 260.964081,682.966187 268.336334,680.995483 
	C270.238953,680.486816 270.558716,678.808655 270.684967,677.017944 
	C270.965424,673.038330 271.473267,669.074524 271.740051,665.094360 
	C271.983704,661.459412 273.695129,659.651794 277.431641,659.682434 
	C284.595917,659.741211 291.763763,659.796692 298.924866,659.629333 
	C302.604950,659.543335 303.994019,661.401550 304.297607,664.683289 
	C304.634369,668.323792 305.141235,671.954529 305.320282,675.601990 
	C305.478943,678.833313 306.874420,680.441833 309.970642,681.765930 
	C317.550842,685.007568 324.267578,685.906921 330.509674,678.938293 
	C332.922424,676.244690 336.451630,674.819397 340.547424,676.438293 
	C342.725372,677.299194 344.712860,675.580322 346.566132,674.553894 
	C369.149750,662.046204 391.811554,649.672546 414.189575,636.805786 
	C419.991760,633.469666 424.803040,632.431335 430.564575,636.427734 
	C434.507751,639.162964 438.925934,641.275330 443.297394,643.310425 
	C446.508057,644.804993 447.619659,646.954285 447.387909,650.388794 
	C446.963013,656.686768 449.334381,663.829102 446.466461,669.093506 
	C443.664459,674.236816 436.261993,675.452087 430.876862,678.373108 
	C411.408905,688.932922 391.844452,699.315002 372.379456,709.880249 
	C369.882843,711.235291 368.179932,711.096985 366.293488,708.992676 
	C363.486084,705.860962 359.994476,703.593750 356.275665,701.636169 
	C354.049011,700.463989 352.496033,700.771484 351.484314,703.145325 
	C351.353943,703.451172 351.154785,703.729919 351.042664,704.041016 
	C350.038940,706.826050 346.130402,708.732361 347.063171,711.723938 
	C348.734375,717.083740 351.413635,722.139954 353.849762,727.237915 
	C354.179199,727.927429 355.517212,728.436707 356.424438,728.498718 
	C361.774567,728.864075 366.927795,729.935425 371.961792,731.838867 
	C374.401123,732.761292 376.412933,730.861816 378.408173,729.815369 
	C397.736389,719.678162 416.564697,708.648682 435.458496,697.735840 
	C438.980072,695.701782 442.322845,693.193481 446.993103,692.338318 
	C446.993103,726.608276 446.993103,760.331360 446.993103,793.971741 
	C444.639862,795.137451 443.264954,793.445068 441.765686,792.667603 
	C420.622681,781.703674 399.492554,770.714294 378.425018,759.606445 
	C375.391968,758.007263 372.773193,757.569824 369.534637,759.115967 
	C365.454926,761.063721 360.843079,761.311279 356.424225,762.069763 
	C354.171234,762.456543 352.933594,763.457703 352.154358,765.601379 
	C350.791351,769.350586 349.254974,773.047729 347.575409,776.666443 
	C346.740753,778.464844 347.237579,779.806946 348.089325,781.330200 
	C349.714752,784.237244 350.899109,787.447266 352.850067,790.102844 
	C355.886444,794.235657 355.248779,797.737732 352.077362,801.266663 
	C350.964996,802.504395 350.019348,803.905579 348.827972,805.056641 
	C336.403961,817.059265 336.696686,816.136353 325.378540,806.518494 
	C323.062134,804.549988 321.183319,804.366882 318.704224,805.752502 
	C315.788818,807.381897 312.708008,808.719543 309.394806,809.256836 
	C306.664520,809.699585 305.318268,811.175781 304.982269,813.843872 
	C304.484283,817.798096 303.735382,821.728027 303.407837,825.694275 
	C303.113739,829.255676 301.163788,830.700256 297.904266,830.832458 
	C290.741364,831.123047 283.586029,831.110168 276.444092,830.304810 
	C273.908630,830.018799 272.567749,828.620544 272.024597,826.270020 
	C271.875275,825.623901 271.800385,824.957947 271.727417,824.297058 
	C270.108612,809.640137 270.091217,809.704895 256.090210,805.738831 
	C253.847107,805.103333 252.636673,806.207703 251.192825,807.281799 
	C238.301010,816.871765 238.243240,816.873535 227.521637,804.644043 
	C225.005646,801.774170 222.184174,799.110352 220.905197,794.968506 
M324.663483,742.813171 
	C324.284485,740.519653 323.993042,738.207703 323.512634,735.935608 
	C319.733185,718.060730 300.822174,705.689514 282.758423,708.927185 
	C263.494843,712.380066 251.034836,728.258423 252.191299,748.769226 
	C253.411545,770.410706 275.559479,787.330200 296.554321,781.964783 
	C313.738831,777.573181 324.661041,762.716858 324.663483,742.813171 
z"/>
<path fill="#000000" opacity="1.000000" stroke="none" 
	d="
M697.543945,633.593567 
	C688.488281,641.283264 680.421082,640.546509 670.569336,634.375732 
	C655.934814,625.209045 640.058289,618.037231 624.819458,609.814148 
	C621.216614,607.869934 618.295837,607.689941 614.726013,609.931580 
	C607.856262,614.245178 600.712097,618.121643 593.772156,622.127258 
	C591.413269,620.141785 592.093994,617.814392 592.072937,615.773560 
	C591.890442,598.120239 592.260315,580.471130 592.464905,562.819519 
	C592.719727,540.843811 592.349731,518.857239 591.952148,496.880707 
	C591.869263,492.301636 593.179993,489.509338 597.261719,487.302704 
	C607.365540,481.840363 617.183350,475.850037 627.269592,470.353638 
	C631.157471,468.234955 633.546021,465.624207 633.433350,461.050903 
	C633.388367,459.224518 633.620483,457.392822 633.621033,455.563507 
	C633.629578,424.746765 633.577942,393.929932 633.663879,363.113434 
	C633.676880,358.464355 632.615417,353.867065 633.477417,349.167725 
	C634.822815,341.833649 639.282898,337.773560 645.923523,338.275879 
	C652.789124,338.795166 657.028931,343.602783 657.350769,350.972229 
	C658.252441,371.613770 657.983154,392.267242 658.041443,412.916595 
	C658.099792,433.571686 657.899475,454.228394 658.097595,474.881622 
	C658.138489,479.140137 656.722900,481.571136 653.028076,483.520691 
	C645.374512,487.559174 637.894104,491.931458 630.404114,496.272675 
	C624.978210,499.417542 624.967224,500.951447 630.275024,503.942383 
	C647.536194,513.669250 664.861816,523.282593 682.067017,533.107239 
	C685.375916,534.996704 688.049744,534.906494 691.331726,533.070374 
	C706.732971,524.454102 722.237854,516.022339 737.734680,507.577911 
	C740.302979,506.178436 742.775818,504.420959 745.693481,504.181061 
	C747.402283,505.678070 747.046631,507.431000 747.046509,509.045654 
	C747.044800,539.361816 746.935547,569.678345 747.086670,599.993652 
	C747.110413,604.755737 745.594971,607.466125 741.265991,609.729492 
	C726.662720,617.364685 712.309204,625.477661 697.543945,633.593567 
z"/>
<path fill="#000000" opacity="1.000000" stroke="none" 
	d="
M662.279114,313.749939 
	C614.773254,279.586975 562.480591,262.524872 504.002960,266.392273 
	C456.161041,269.556305 413.231720,286.407257 376.150452,316.283112 
	C335.461151,349.065918 308.724762,391.291290 297.952545,442.939819 
	C297.244324,446.335541 297.345337,449.901978 296.613312,453.290375 
	C294.947357,461.001770 289.128387,465.314972 282.378174,464.169586 
	C275.698975,463.036316 271.347260,456.729553 272.160553,449.237274 
	C274.264496,429.855499 280.011780,411.463165 287.889771,393.751709 
	C299.831970,366.903107 315.740662,342.508148 335.586487,320.878479 
	C347.548370,307.841461 361.497101,296.875244 376.111816,286.908600 
	C411.272644,262.930298 450.025635,248.064484 492.286865,243.093628 
	C517.042786,240.181778 541.810608,241.524597 566.390930,245.979599 
	C612.188782,254.280151 652.468262,274.485199 688.546997,303.271881 
	C708.896729,319.508636 725.350403,338.973358 732.982605,364.634430 
	C734.708618,370.437622 735.430664,376.318420 735.369934,382.369965 
	C735.264709,392.867706 735.442993,403.368042 735.378113,413.866547 
	C735.329102,421.786743 730.607971,426.731506 723.240479,426.839844 
	C716.516846,426.938751 711.025146,421.777008 710.803040,414.426025 
	C710.506042,404.602234 710.573608,394.761749 710.715881,384.931763 
	C710.891357,372.808044 707.106079,361.958862 700.278931,352.164124 
	C689.910034,337.288177 677.649292,324.216888 662.279114,313.749939 
z"/>
<path fill="#000000" opacity="1.000000" stroke="none" 
	d="
M627.720093,224.152344 
	C644.139709,230.048019 659.162231,237.997391 674.059143,246.159332 
	C682.167175,250.601669 684.273132,256.855469 680.573364,263.410400 
	C676.606262,270.438995 668.790649,272.406403 661.141968,267.634796 
	C642.926819,256.271545 623.317200,248.062424 603.047607,241.311249 
	C582.900696,234.600937 562.145142,230.967255 541.007141,229.143967 
	C513.752197,226.793045 486.622467,228.272736 460.038422,234.084534 
	C415.806793,243.754440 375.460693,262.265900 340.457947,291.418060 
	C303.048828,322.574371 273.863159,359.853302 257.242950,406.073975 
	C249.025345,428.927185 244.160568,452.488159 245.199097,476.972229 
	C245.443878,482.743530 243.867691,487.470947 238.522949,490.442230 
	C229.569168,495.419952 220.932404,490.216431 220.669510,479.631805 
	C219.996460,452.532043 224.415787,426.179718 233.512955,400.748383 
	C251.143127,351.462952 280.574524,310.446075 320.862488,276.981262 
	C344.734650,257.152039 370.128540,239.911209 398.977997,228.281586 
	C434.649658,213.901855 471.603088,205.740234 510.296356,205.520233 
	C536.842651,205.369278 563.179016,206.424591 589.086243,212.637589 
	C602.037781,215.743591 614.782593,219.600739 627.720093,224.152344 
z"/>
<path fill="#000000" opacity="1.000000" stroke="none" 
	d="
M535.999756,651.040527 
	C525.203552,660.108398 515.393494,659.250183 504.027588,651.544922 
	C491.676270,643.171631 477.916199,636.868835 464.722443,629.752075 
	C462.176819,628.379028 460.597351,626.854980 460.606934,623.637878 
	C460.703125,591.313232 460.672302,558.988098 460.700073,526.663147 
	C460.700897,525.698364 460.950867,524.733826 461.061310,523.937256 
	C462.900024,522.736023 464.108612,523.800537 465.395752,524.511658 
	C482.300903,533.851624 499.239044,543.132690 516.085083,552.578003 
	C518.571350,553.972046 520.403931,553.990479 522.917236,552.585938 
	C539.055786,543.566956 555.290222,534.719238 571.520264,525.864929 
	C573.672302,524.690979 575.688660,523.085144 578.346436,523.006592 
	C580.142822,524.455444 579.374268,526.425598 579.380737,528.138428 
	C579.501648,559.959473 579.533447,591.780884 579.711365,623.601562 
	C579.727356,626.458984 578.370056,627.800415 576.181030,628.996643 
	C562.882996,636.263794 549.609619,643.575928 535.999756,651.040527 
z"/>
<path fill="#000000" opacity="1.000000" stroke="none" 
	d="
M318.710266,244.312927 
	C312.564972,236.562363 313.835175,228.571625 321.938660,223.732727 
	C368.017426,196.217346 417.120850,176.756470 470.436737,168.946793 
	C514.759277,162.454437 558.615417,165.122055 602.098694,176.041595 
	C639.212158,185.361572 674.096497,199.778137 706.852539,219.488083 
	C718.575256,226.541885 729.885010,234.176895 740.419128,242.909882 
	C744.441956,246.244904 747.232361,250.414322 745.935852,255.981827 
	C744.681885,261.366913 741.041748,264.581299 735.674072,265.716400 
	C730.600891,266.789276 726.531494,264.408234 722.958740,261.307190 
	C713.611328,253.193924 703.473450,246.169922 692.870117,239.893311 
	C660.001709,220.436951 625.266052,205.552338 587.820801,197.231033 
	C567.112427,192.629105 546.195984,189.882599 525.040466,189.413422 
	C484.121613,188.505920 444.542480,195.734848 406.233612,210.073151 
	C381.835541,219.204880 358.379791,230.230042 336.465881,244.417877 
	C329.730225,248.778763 324.694550,248.698776 318.710266,244.312927 
z"/>
<path fill="#000000" opacity="1.000000" stroke="none" 
	d="
M497.404541,726.521240 
	C503.706970,729.989685 509.762115,733.151062 515.610291,736.657715 
	C518.426758,738.346558 520.613159,738.111023 523.391907,736.534851 
	C540.182007,727.011230 557.074524,717.667969 573.930359,708.260010 
	C575.362854,707.460449 576.685852,706.294983 578.587097,706.996887 
	C579.870300,708.573486 579.343872,710.478577 579.346680,712.236328 
	C579.384583,736.210266 579.284302,760.184937 579.452393,784.157715 
	C579.479492,788.017395 578.265076,790.249084 574.850830,792.017517 
	C557.417969,801.047302 540.062378,810.227417 522.733032,819.454956 
	C519.927551,820.948853 517.661804,820.782837 514.854614,819.253052 
	C498.782227,810.494629 482.662842,801.816101 466.404297,793.410339 
	C462.179169,791.225891 460.435822,788.638184 460.488129,783.774048 
	C460.744110,759.969299 460.637115,736.160706 460.678436,712.353516 
	C460.680969,710.882202 460.854523,709.411072 461.017670,706.856873 
	C473.924530,712.612122 485.077850,720.304077 497.404541,726.521240 
z"/>
<path fill="#000000" opacity="1.000000" stroke="none" 
	d="
M198.048828,562.167725 
	C200.492569,578.819031 205.526627,594.306458 211.111923,609.642212 
	C216.368179,624.074463 222.878906,637.914490 230.552124,651.221619 
	C233.137863,655.705872 234.480515,660.381165 231.855789,665.453796 
	C226.938675,674.956848 215.772324,675.866821 210.248016,666.724182 
	C201.530945,652.297607 194.693115,636.923401 188.778061,621.132690 
	C175.849075,586.617737 170.063461,550.940430 169.461914,514.101807 
	C168.859375,477.203278 172.710281,441.020447 182.751221,405.527435 
	C189.348892,382.205750 198.351669,359.850800 210.499924,338.826416 
	C216.414795,328.589813 221.880020,318.091125 228.579468,308.310760 
	C231.667953,303.801971 235.785767,302.009094 241.035248,302.867157 
	C246.429886,303.748901 250.100052,306.819946 251.764450,312.117310 
	C253.044876,316.192627 251.457153,319.676086 249.308960,322.926422 
	C241.044647,335.430817 232.867569,347.942688 226.119736,361.403534 
	C211.659393,390.249603 202.494354,420.688660 197.327576,452.435944 
	C193.758530,474.366089 192.734543,496.471130 193.467606,518.620483 
	C193.945679,533.065613 195.072510,547.513977 198.048828,562.167725 
z"/>
<path fill="#000000" opacity="1.000000" stroke="none" 
	d="
M778.893433,485.224945 
	C781.519226,486.447083 782.170898,488.272095 782.162659,490.682373 
	C782.057434,521.504944 781.994385,552.327759 781.970703,583.150452 
	C781.968567,585.944031 780.968567,587.754089 778.421143,589.120178 
	C772.623413,592.229187 766.976624,595.619690 761.058594,599.016296 
	C759.356079,596.130127 759.896484,593.588867 759.889771,591.190247 
	C759.813171,563.532898 759.734497,535.875122 759.833252,508.218140 
	C759.847168,504.321533 758.789001,501.774811 755.275391,499.745453 
	C733.350281,487.082855 710.858215,475.462372 688.685181,463.257996 
	C673.191406,454.730072 676.014404,459.020386 675.758179,441.820984 
	C675.699463,437.880585 675.170776,433.868988 676.763000,428.570190 
	C710.966614,447.539062 744.762268,466.281738 778.893433,485.224945 
z"/>
<path fill="#000000" opacity="1.000000" stroke="none" 
	d="
M779.818481,419.042450 
	C773.778809,394.129517 763.846497,371.318848 750.247498,350.135101 
	C742.694824,338.369934 735.178589,326.584839 725.145996,316.593475 
	C719.376953,310.848145 720.138000,302.343231 726.024414,297.045898 
	C730.682312,292.854095 739.058899,293.447021 743.976440,299.179352 
	C750.582947,306.880493 756.999695,314.825195 762.700928,323.207428 
	C782.144714,351.794830 797.403748,382.371063 804.626160,416.454559 
	C806.968506,427.508179 808.057922,438.787750 808.612305,450.086761 
	C808.733887,452.563629 808.513611,455.076141 807.405029,457.408020 
	C805.129700,462.193787 799.665466,465.565674 794.948059,465.056335 
	C789.882690,464.509430 786.163025,461.122955 784.618774,455.537933 
	C782.912292,449.366241 784.130249,442.917542 782.833496,436.676910 
	C781.649719,430.980286 780.858093,425.202118 779.818481,419.042450 
z"/>
<path fill="#000000" opacity="1.000000" stroke="none" 
	d="
M804.176453,356.739136 
	C799.787903,347.124634 794.570618,338.379181 788.917542,329.945984 
	C782.756287,320.754883 779.913574,310.884583 780.052368,299.852753 
	C780.251404,284.024567 779.986877,268.190887 779.989441,252.359573 
	C779.989746,250.376450 780.330139,248.380249 780.650879,246.412598 
	C781.929810,238.566269 786.062073,235.147812 793.570984,235.647186 
	C800.254395,236.091644 805.207092,241.167191 805.279175,248.225266 
	C805.413696,261.389069 806.060364,274.615753 805.051208,287.705017 
	C803.916443,302.422943 807.904236,314.932220 815.970642,327.072083 
	C829.525391,347.472015 837.680298,370.472473 846.041138,393.330261 
	C849.898743,403.876862 840.523865,413.803680 830.807739,411.354950 
	C824.493530,409.763641 822.309143,404.685242 820.990051,399.244415 
	C818.664551,389.652435 815.560669,380.363892 811.355957,371.446014 
	C809.082642,366.624695 806.688293,361.860413 804.176453,356.739136 
z"/>
<path fill="#000000" opacity="1.000000" stroke="none" 
	d="
M803.079468,493.808044 
	C813.932007,488.494232 822.308838,493.549347 822.327087,505.109222 
	C822.361572,526.924011 822.506836,548.741638 822.231384,570.553284 
	C821.833862,602.031799 814.703552,632.179382 803.330872,661.398682 
	C800.276550,669.245850 792.896973,673.106506 786.362854,670.570374 
	C780.027710,668.111389 776.645996,659.312378 779.629944,651.802612 
	C782.761658,643.921265 786.310120,636.205872 788.691589,628.040588 
	C794.496399,608.138123 797.778259,587.850037 797.901245,567.091736 
	C798.020508,546.954590 798.028931,526.816528 798.230164,506.680298 
	C798.276489,502.043854 798.404297,497.230072 803.079468,493.808044 
z"/>
<path fill="#000000" opacity="1.000000" stroke="none" 
	d="
M835.303711,465.557404 
	C834.508667,458.816223 832.547546,452.784943 831.135620,446.628326 
	C829.444824,439.256104 832.727783,432.807770 838.838440,430.690399 
	C845.281616,428.457764 852.265503,431.027771 854.918945,436.983276 
	C856.118225,439.674988 856.721558,442.685730 857.251221,445.613953 
	C862.463013,474.421631 863.157227,503.517151 862.084045,532.651123 
	C861.348755,552.610046 857.959961,572.307312 854.408142,591.939209 
	C852.811768,600.762817 846.782166,605.490173 839.235229,604.197510 
	C832.156189,602.984985 828.190430,596.169922 830.107910,587.417725 
	C832.708435,575.547791 834.245544,563.545959 835.845581,551.519714 
	C839.645142,522.961243 839.679199,494.474731 835.303711,465.557404 
z"/>
<path fill="#000000" opacity="1.000000" stroke="none" 
	d="
M556.640015,506.408752 
	C545.325623,500.302887 534.292725,494.451599 523.382019,488.380859 
	C520.588562,486.826569 518.345947,486.762207 515.535645,488.343170 
	C499.140930,497.566101 482.657990,506.632263 466.202240,515.746704 
	C464.775391,516.536987 463.517395,517.796387 461.218536,517.372986 
	C459.716675,513.566345 461.269989,509.346039 460.524994,505.396973 
	C458.401978,494.143738 463.329926,487.992126 473.447418,483.223083 
	C487.420685,476.636627 500.657318,468.466370 514.083801,460.755554 
	C517.495056,458.796448 520.233398,458.586548 523.767578,460.556427 
	C540.487244,469.875336 557.315369,479.002167 574.187805,488.042572 
	C577.974060,490.071350 579.758911,492.525726 579.459167,497.062653 
	C579.023560,503.657959 579.347534,510.303467 579.347534,517.773682 
	C571.010010,515.003540 564.238953,510.256500 556.640015,506.408752 
z"/>
<path fill="#000000" opacity="1.000000" stroke="none" 
	d="
M436.342194,841.751343 
	C414.213623,835.402222 393.926910,825.795044 374.352997,814.657532 
	C367.322601,810.657227 365.472778,805.255005 367.736328,798.723938 
	C370.488434,790.783264 377.587189,787.650635 384.869232,791.884277 
	C395.259277,797.924805 406.007111,803.169800 416.924835,808.142212 
	C437.859222,817.676636 459.983307,822.915710 482.545319,826.625793 
	C485.361053,827.088745 488.121704,827.685059 490.486816,829.361633 
	C495.570251,832.965393 497.567200,839.074646 495.432404,844.284119 
	C493.257538,849.591248 486.656281,853.064453 479.973938,851.822815 
	C465.422791,849.119141 450.900146,846.235657 436.342194,841.751343 
z"/>
<path fill="#000000" opacity="1.000000" stroke="none" 
	d="
M546.328186,852.018372 
	C538.781067,849.968506 534.830444,845.440552 535.075806,839.558838 
	C535.335266,833.339417 539.210754,828.728577 546.517822,827.680298 
	C562.859802,825.335938 578.922913,821.970032 594.666138,816.960876 
	C609.785950,812.150024 624.445618,806.354187 638.118774,798.215942 
	C642.030762,795.887634 646.120300,793.947571 650.870728,795.085205 
	C656.140320,796.347046 659.638977,800.027771 660.367920,804.854126 
	C661.271667,810.837524 658.996277,816.140137 653.406921,819.117493 
	C646.655273,822.714111 639.679932,825.913330 632.692200,829.040344 
	C605.279968,841.307190 576.563049,848.760193 546.328186,852.018372 
z"/>
<path fill="#000000" opacity="1.000000" stroke="none" 
	d="
M569.916748,695.117188 
	C559.501282,689.038879 548.558655,684.581055 538.123047,677.113525 
	C551.824280,668.710266 564.738831,660.983582 578.986450,653.762878 
	C578.986450,669.644531 578.986450,684.314697 578.986450,699.152588 
	C575.162415,699.273376 573.093933,696.390991 569.916748,695.117188 
z"/>
<path fill="#000000" opacity="1.000000" stroke="none" 
	d="
M473.365234,660.568481 
	C482.791412,665.837036 491.897247,670.925781 501.081604,676.058472 
	C498.445862,679.386780 465.919434,698.234558 461.104248,699.297913 
	C461.104248,684.544861 461.104248,669.896423 461.104248,654.477417 
	C465.732300,655.579224 469.142609,658.551270 473.365234,660.568481 
z"/>
<path fill="#000000" opacity="1.000000" stroke="none" 
	d="
M246.321564,513.252991 
	C252.250641,516.999023 255.055725,522.112000 253.943466,528.639160 
	C252.816254,535.254028 248.145676,538.867981 241.822327,540.377258 
	C236.006638,541.765442 231.342636,539.644775 227.787521,535.099915 
	C223.928085,530.165833 223.988754,522.980591 227.687683,517.852661 
	C231.636108,512.378723 238.633194,510.544464 246.321564,513.252991 
z"/>
<path fill="#000000" opacity="1.000000" stroke="none" 
	d="
M713.040466,650.979248 
	C720.755432,646.687866 728.133179,642.554382 735.558594,638.508545 
	C737.143616,637.644897 738.845703,636.822571 740.592590,636.467224 
	C743.893921,635.795837 746.325623,637.286926 748.072937,640.124634 
	C749.859558,643.026184 749.061218,645.514954 747.016418,647.814453 
	C746.252625,648.673279 745.393372,649.551025 744.397522,650.083130 
	C736.210876,654.457336 728.080383,658.955750 719.730408,662.998230 
	C714.294739,665.629822 710.718445,664.839905 708.824158,661.127258 
	C706.475952,656.524719 709.280029,653.656067 713.040466,650.979248 
z"/>
<path fill="#000000" opacity="1.000000" stroke="none" 
	d="
M324.202576,658.977905 
	C321.972870,662.942688 319.201721,663.245544 315.614319,661.448669 
	C307.737061,657.503235 299.898163,653.463318 291.602844,650.405151 
	C290.078491,649.843201 288.610474,648.876038 287.392242,647.787292 
	C284.656982,645.342896 282.487274,642.531555 284.843262,638.673523 
	C287.164673,634.872131 290.996307,633.358826 294.738708,635.235352 
	C303.792877,639.775574 312.589294,644.853760 321.318298,650.005371 
	C324.397675,651.822693 325.754547,654.903809 324.202576,658.977905 
z"/>
</svg>